<svg width="24" height="24" viewBox="0 0 24 24" fill="none" xmlns="http://www.w3.org/2000/svg">
<path d="M11 4.99983V18.9998L7 14.9998H4C3.73478 14.9998 3.48043 14.8945 3.29289 14.7069C3.10536 14.5194 3 14.265 3 13.9998V9.99983C3 9.73461 3.10536 9.48026 3.29289 9.29272C3.48043 9.10519 3.73478 8.99983 4 8.99983H7L11 4.99983Z" stroke="white" stroke-width="1.5" stroke-linecap="round" stroke-linejoin="round"/>
<path d="M18.36 5.64013C20.0454 7.32763 20.9921 9.61512 20.9921 12.0001C20.9921 14.3851 20.0454 16.6726 18.36 18.3601" stroke="white" stroke-width="1.5" stroke-linecap="round" stroke-linejoin="round"/>
<path d="M15.5402 8.45982C16.0058 8.92427 16.3752 9.47603 16.6273 10.0835C16.8793 10.6909 17.0091 11.3421 17.0091 11.9998C17.0091 12.6575 16.8793 13.3087 16.6273 13.9162C16.3752 14.5236 16.0058 15.0754 15.5402 15.5398" stroke="white" stroke-width="1.5" stroke-linecap="round" stroke-linejoin="round"/>
</svg>
