<svg width="18" height="18" viewBox="0 0 18 18" fill="none" xmlns="http://www.w3.org/2000/svg">
<path d="M5.68475 7.40021L11.4362 4.52656M3.35638 5.95904C3.87188 5.95904 4.37579 6.1118 4.80441 6.39798C5.23303 6.68417 5.5671 7.09094 5.76437 7.56686C5.96164 8.04277 6.01325 8.56645 5.91268 9.07168C5.81212 9.57691 5.56388 10.041 5.19937 10.4052C4.83486 10.7695 4.37045 11.0175 3.86486 11.118C3.35927 11.2185 2.83522 11.167 2.35896 10.9698C1.88271 10.7727 1.47565 10.4389 1.18925 10.0106C0.902862 9.58225 0.75 9.07869 0.75 8.56356C0.75 7.8728 1.0246 7.21033 1.51339 6.72189C2.00218 6.23345 2.66513 5.95904 3.35638 5.95904V5.95904ZM11.1755 13.7726C11.1755 14.2877 11.3284 14.7913 11.6148 15.2196C11.9012 15.6479 12.3082 15.9817 12.7845 16.1789C13.2607 16.376 13.7848 16.4276 14.2904 16.3271C14.796 16.2266 15.2604 15.9785 15.6249 15.6143C15.9894 15.25 16.2376 14.786 16.3382 14.2807C16.4388 13.7755 16.3872 13.2518 16.1899 12.7759C15.9926 12.3 15.6586 11.8932 15.2299 11.607C14.8013 11.3208 14.2974 11.1681 13.7819 11.1681C13.0907 11.1681 12.4277 11.4425 11.9389 11.9309C11.4501 12.4194 11.1755 13.0818 11.1755 13.7726ZM5.68475 9.72692L11.4362 12.6006L5.68475 9.72692ZM13.7819 5.95904C14.2974 5.95904 14.8013 5.80629 15.2299 5.5201C15.6586 5.23391 15.9926 4.82714 16.1899 4.35123C16.3872 3.87532 16.4388 3.35163 16.3382 2.84641C16.2376 2.34118 15.9894 1.8771 15.6249 1.51285C15.2604 1.1486 14.796 0.900542 14.2904 0.800046C13.7848 0.69955 13.2607 0.751129 12.7845 0.948259C12.3082 1.14539 11.9012 1.47922 11.6148 1.90753C11.3284 2.33584 11.1755 2.8394 11.1755 3.35452C11.1755 4.04528 11.4501 4.70775 11.9389 5.1962C12.4277 5.68464 13.0907 5.95904 13.7819 5.95904Z" stroke="white" stroke-width="1.5" stroke-linecap="round" stroke-linejoin="round"/>
</svg>
